 http://www.imdb.com/title/tt0119314/

Source: The.Horse.Whisperer.1998.BluRay.720p.DTS.x264.CHD Thanks!

Subs: Croatian, Danish, English, Greek and Romanian.

Sample and Screens included.

General
Complete name                            : The Horse Whisperer-720p MP4 AAC x264 BRRip 1998-CC.mp4
Format                                   : MPEG-4
Format profile                           : Base Media
Codec ID                                 : isom
File size                                : 3.36 GiB
Duration                                 : 2h 49mn
Overall bit rate mode                    : Variable
Overall bit rate                         : 2 843 Kbps
Encoded date                             : UTC 2012-10-23 17:08:20

Video
ID                                       : 1
Format                                   : AVC
Format/Info                              : Advanced Video Codec
Format profile                           : High@L4.1
Format settings, CABAC                   : Yes
Format settings, ReFrames                : 5 frames
Codec ID                                 : avc1
Codec ID/Info                            : Advanced Video Coding
Duration                                 : 2h 49mn
Source duration                          : 2h 49mn
Bit rate                                 : 2 478 Kbps
Maximum bit rate                         : 21.8 Mbps
Width                                    : 1 280 pixels
Height                                   : 544 pixels
Display aspect ratio                     : 2.35:1
Original display aspect ratio            : 2.35:1
Frame rate mode                          : Variable
Frame rate                               : 23.976 fps
Minimum frame rate                       : 19.048 fps
Maximum frame rate                       : 24.390 fps
Color space                              : YUV
Chroma subsampling                       : 4:2:0
Bit depth                                : 8 bits
Scan type                                : Progressive
Bits/(Pixel*Frame)                       : 0.148
Stream size                              : 2.90 GiB (86%)
Source stream size                       : 2.90 GiB (86%)
Writing library                          : x264 core 112

Audio
ID                                       : 2
Format                                   : AAC
Format/Info                              : Advanced Audio Codec
Format profile                           : LC
Codec ID                                 : 40
Duration                                 : 2h 49mn
Bit rate mode                            : Variable
Bit rate                                 : 384 Kbps
Maximum bit rate                         : 482 Kbps
Channel(s)                               : 6 channels
Channel positions                        : Front: L C R, Side: L R, LFE
Sampling rate                            : 48.0 KHz
Compression mode                         : Lossy
Delay relative to video                  : 105ms
Stream size                              : 465 MiB (14%)
Language                                 : English

Enjoy...

Requested by

Coming up: Apollo 13, Evita, Heat, Jay and Silent Bob Strike Back, Donnie Brasco and more...